<svg width="294" height="364" viewBox="0 0 294 364" fill="none" xmlns="http://www.w3.org/2000/svg">
<rect y="358.944" width="294" height="5.05556" rx="2.52778" fill="#0A3871"/>
<rect x="80.6748" width="177.75" height="4.55" rx="2.275" fill="#0A3871"/>
<rect x="80.6748" width="4.5" height="364" rx="2.25" fill="#0A3871"/>
<rect x="253.925" width="4.5" height="50.05" rx="2.25" fill="#0A3871"/>
<rect width="4.51169" height="72.6008" rx="2.25584" transform="matrix(-0.863617 0.504149 0.495862 0.868401 257.52 108.063)" fill="#0A3871"/>
<rect width="4.51195" height="72.6008" rx="2.25597" transform="matrix(0.863617 0.504149 -0.495862 0.868401 254.749 108.063)" fill="#0A3871"/>
<path fill-rule="evenodd" clip-rule="evenodd" d="M256.175 104.65C271.086 104.65 283.175 92.4274 283.175 77.35C283.175 62.2726 271.086 50.05 256.175 50.05C241.263 50.05 229.175 62.2726 229.175 77.35C229.175 92.4274 241.263 104.65 256.175 104.65ZM256.175 109.2C273.572 109.2 287.675 94.9403 287.675 77.35C287.675 59.7597 273.572 45.5 256.175 45.5C238.778 45.5 224.675 59.7597 224.675 77.35C224.675 94.9403 238.778 109.2 256.175 109.2Z" fill="#0A3871"/>
</svg>
